HIERARCHY
ROOT Hips
{
	OFFSET 0.000000 100.481300 0.000000
	CHANNELS 6 Xposition Yposition Zposition Xrotation Yrotation Zrotation
	JOINT Spine
	{
		OFFSET -0.279200 12.230698 -2.892100
		CHANNELS 3 Xrotation Yrotation Zrotation
		JOINT Spine1
		{
			OFFSET -0.325700 14.269203 -3.374200
			CHANNELS 3 Xrotation Yrotation Zrotation
			JOINT Spine2
			{
				OFFSET -0.372300 16.307602 -0.352600
				CHANNELS 3 Xrotation Yrotation Zrotation
				JOINT Neck
				{
					OFFSET -0.418800 17.814194 8.416900
					CHANNELS 3 Xrotation Yrotation Zrotation
					JOINT Head
					{
						OFFSET 0.000000 7.031097 3.806800
						CHANNELS 3 Xrotation Yrotation Zrotation
						JOINT HeadTop_End
						{
							OFFSET 0.000000 24.646606 12.978600
							CHANNELS 3 Xrotation Yrotation Zrotation
							End Site
							{
								OFFSET 0.000000 27.854965 0.000000
							}
						}
					}
				}
				JOINT LeftShoulder
				{
					OFFSET 16.952999 14.495407 -7.737500
					CHANNELS 3 Xrotation Yrotation Zrotation
					JOINT LeftArm
					{
						OFFSET 9.308998 -2.777710 0.208600
						CHANNELS 3 Xrotation Yrotation Zrotation
						JOINT LeftForeArm
						{
							OFFSET 29.972298 0.000000 0.000000
							CHANNELS 3 Xrotation Yrotation Zrotation
							JOINT LeftHand
							{
								OFFSET 26.026505 0.000000 0.000000
								CHANNELS 3 Xrotation Yrotation Zrotation
								JOINT LeftHandThumb1
								{
									OFFSET 12.240501 -7.147949 9.207150
									CHANNELS 3 Xrotation Yrotation Zrotation
									JOINT LeftHandThumb2
									{
										OFFSET 4.138618 -2.389435 2.389433
										CHANNELS 3 Xrotation Yrotation Zrotation
										JOINT LeftHandThumb3
										{
											OFFSET 2.726913 -1.574387 1.574386
											CHANNELS 3 Xrotation Yrotation Zrotation
											JOINT LeftHandThumb4
											{
												OFFSET 3.941010 -2.275345 2.275342
												CHANNELS 3 Xrotation Yrotation Zrotation
												End Site
												{
													OFFSET -0.005798 5.087799 0.009903
												}
											}
										}
									}
								}
								JOINT LeftHandIndex1
								{
									OFFSET 24.424698 -1.985611 5.953459
									CHANNELS 3 Xrotation Yrotation Zrotation
									JOINT LeftHandIndex2
									{
										OFFSET 6.426697 0.000000 0.000000
										CHANNELS 3 Xrotation Yrotation Zrotation
										JOINT LeftHandIndex3
										{
											OFFSET 5.337898 0.000000 0.000000
											CHANNELS 3 Xrotation Yrotation Zrotation
											JOINT LeftHandIndex4
											{
												OFFSET 4.409401 0.000000 0.000000
												CHANNELS 3 Xrotation Yrotation Zrotation
												End Site
												{
													OFFSET 0.000000 4.409363 0.014373
												}
											}
										}
									}
								}
								JOINT LeftHandMiddle1
								{
									OFFSET 23.810104 0.000000 0.000000
									CHANNELS 3 Xrotation Yrotation Zrotation
									JOINT LeftHandMiddle2
									{
										OFFSET 7.176498 0.000000 0.000000
										CHANNELS 3 Xrotation Yrotation Zrotation
										JOINT LeftHandMiddle3
										{
											OFFSET 6.774902 0.000000 0.000000
											CHANNELS 3 Xrotation Yrotation Zrotation
											JOINT LeftHandMiddle4
											{
												OFFSET 5.403328 0.000000 0.000000
												CHANNELS 3 Xrotation Yrotation Zrotation
												End Site
												{
													OFFSET -0.027702 5.403244 0.017414
												}
											}
										}
									}
								}
								JOINT LeftHandRing1
								{
									OFFSET 22.908401 -0.839279 -6.020567
									CHANNELS 3 Xrotation Yrotation Zrotation
									JOINT LeftHandRing2
									{
										OFFSET 6.337502 0.000000 0.000000
										CHANNELS 3 Xrotation Yrotation Zrotation
										JOINT LeftHandRing3
										{
											OFFSET 5.779297 0.000000 0.000000
											CHANNELS 3 Xrotation Yrotation Zrotation
											JOINT LeftHandRing4
											{
												OFFSET 4.965698 0.000000 0.000000
												CHANNELS 3 Xrotation Yrotation Zrotation
												End Site
												{
													OFFSET 0.000000 4.965668 0.016186
												}
											}
										}
									}
								}
								JOINT LeftHandPinky1
								{
									OFFSET 20.037003 -1.530319 -10.950146
									CHANNELS 3 Xrotation Yrotation Zrotation
									JOINT LeftHandPinky2
									{
										OFFSET 5.254700 0.000000 0.000000
										CHANNELS 3 Xrotation Yrotation Zrotation
										JOINT LeftHandPinky3
										{
											OFFSET 4.810204 0.000000 0.000000
											CHANNELS 3 Xrotation Yrotation Zrotation
											JOINT LeftHandPinky4
											{
												OFFSET 3.647202 0.000000 0.000000
												CHANNELS 3 Xrotation Yrotation Zrotation
												End Site
												{
													OFFSET 0.000000 3.647186 0.011889
												}
											}
										}
									}
								}
							}
						}
					}
				}
				JOINT RightShoulder
				{
					OFFSET -15.141001 14.495407 -7.737500
					CHANNELS 3 Xrotation Yrotation Zrotation
					JOINT RightArm
					{
						OFFSET -9.308998 -2.777710 0.208500
						CHANNELS 3 Xrotation Yrotation Zrotation
						JOINT RightForeArm
						{
							OFFSET -29.972300 0.000000 0.000000
							CHANNELS 3 Xrotation Yrotation Zrotation
							JOINT RightHand
							{
								OFFSET -26.026505 0.000000 0.000000
								CHANNELS 3 Xrotation Yrotation Zrotation
								JOINT RightHandThumb1
								{
									OFFSET -12.240601 -7.148026 9.207092
									CHANNELS 3 Xrotation Yrotation Zrotation
									JOINT RightHandThumb2
									{
										OFFSET -4.138618 -2.389435 2.389433
										CHANNELS 3 Xrotation Yrotation Zrotation
										JOINT RightHandThumb3
										{
											OFFSET -2.726974 -1.574417 1.574421
											CHANNELS 3 Xrotation Yrotation Zrotation
											JOINT RightHandThumb4
											{
												OFFSET -3.941010 -2.275345 2.275343
												CHANNELS 3 Xrotation Yrotation Zrotation
												End Site
												{
													OFFSET 0.005814 5.087799 0.009927
												}
											}
										}
									}
								}
								JOINT RightHandIndex1
								{
									OFFSET -24.424698 -1.985657 5.953444
									CHANNELS 3 Xrotation Yrotation Zrotation
									JOINT RightHandIndex2
									{
										OFFSET -6.426697 0.000000 0.000000
										CHANNELS 3 Xrotation Yrotation Zrotation
										JOINT RightHandIndex3
										{
											OFFSET -5.337898 0.000000 0.000000
											CHANNELS 3 Xrotation Yrotation Zrotation
											JOINT RightHandIndex4
											{
												OFFSET -4.409401 0.000000 0.000000
												CHANNELS 3 Xrotation Yrotation Zrotation
												End Site
												{
													OFFSET 0.000000 4.409363 0.014408
												}
											}
										}
									}
								}
								JOINT RightHandMiddle1
								{
									OFFSET -23.810097 0.000000 0.000000
									CHANNELS 3 Xrotation Yrotation Zrotation
									JOINT RightHandMiddle2
									{
										OFFSET -7.176498 0.000000 0.000000
										CHANNELS 3 Xrotation Yrotation Zrotation
										JOINT RightHandMiddle3
										{
											OFFSET -6.774902 0.000000 0.000000
											CHANNELS 3 Xrotation Yrotation Zrotation
											JOINT RightHandMiddle4
											{
												OFFSET -5.403328 0.000000 0.000000
												CHANNELS 3 Xrotation Yrotation Zrotation
												End Site
												{
													OFFSET 0.027702 5.403244 0.017457
												}
											}
										}
									}
								}
								JOINT RightHandRing1
								{
									OFFSET -22.908302 -0.839325 -6.020576
									CHANNELS 3 Xrotation Yrotation Zrotation
									JOINT RightHandRing2
									{
										OFFSET -6.337502 0.000000 0.000000
										CHANNELS 3 Xrotation Yrotation Zrotation
										JOINT RightHandRing3
										{
											OFFSET -5.779297 0.000000 0.000000
											CHANNELS 3 Xrotation Yrotation Zrotation
											JOINT RightHandRing4
											{
												OFFSET -4.965698 0.000000 0.000000
												CHANNELS 3 Xrotation Yrotation Zrotation
												End Site
												{
													OFFSET 0.000000 4.965668 0.016226
												}
											}
										}
									}
								}
								JOINT RightHandPinky1
								{
									OFFSET -20.037003 -1.530334 -10.950259
									CHANNELS 3 Xrotation Yrotation Zrotation
									JOINT RightHandPinky2
									{
										OFFSET -5.254700 0.000000 0.000000
										CHANNELS 3 Xrotation Yrotation Zrotation
										JOINT RightHandPinky3
										{
											OFFSET -4.810204 0.000000 0.000000
											CHANNELS 3 Xrotation Yrotation Zrotation
											JOINT RightHandPinky4
											{
												OFFSET -3.647202 0.000000 0.000000
												CHANNELS 3 Xrotation Yrotation Zrotation
												End Site
												{
													OFFSET 0.000000 3.647186 0.011917
												}
											}
										}
									}
								}
							}
						}
					}
				}
			}
		}
	}
	JOINT LeftUpLeg
	{
		OFFSET 15.427100 -6.655098 0.678600
		CHANNELS 3 Xrotation Yrotation Zrotation
		JOINT LeftLeg
		{
			OFFSET 4.081073 -39.591068 13.024000
			CHANNELS 3 Xrotation Yrotation Zrotation
			JOINT LeftFoot
			{
				OFFSET -4.081074 -37.707932 -15.979700
				CHANNELS 3 Xrotation Yrotation Zrotation
				JOINT LeftToeBase
				{
					OFFSET 5.346399 -15.068900 20.645000
					CHANNELS 3 Xrotation Yrotation Zrotation
					JOINT LeftToe_End
					{
						OFFSET 2.754700 0.931300 11.300900
						CHANNELS 3 Xrotation Yrotation Zrotation
						End Site
						{
							OFFSET 0.000000 11.669021 0.000000
						}
					}
				}
			}
		}
	}
	JOINT RightUpLeg
	{
		OFFSET -15.569500 -6.655098 0.678600
		CHANNELS 3 Xrotation Yrotation Zrotation
		JOINT RightLeg
		{
			OFFSET -4.081825 -39.591045 13.023800
			CHANNELS 3 Xrotation Yrotation Zrotation
			JOINT RightFoot
			{
				OFFSET 4.081824 -37.707954 -15.979600
				CHANNELS 3 Xrotation Yrotation Zrotation
				JOINT RightToeBase
				{
					OFFSET -5.346400 -15.068900 20.645000
					CHANNELS 3 Xrotation Yrotation Zrotation
					JOINT RightToe_End
					{
						OFFSET -2.754700 0.931300 11.300900
						CHANNELS 3 Xrotation Yrotation Zrotation
						End Site
						{
							OFFSET 0.000000 11.669021 0.000000
						}
					}
				}
			}
		}
	}
}
MOTION
Frames: 6
Frame Time: 0.033333
1.349892 97.405807 -1.527550 -2.086106 -4.152846 -1.544788 4.021848 1.613484 3.135019 2.327579 0.436092 2.793942 2.303152 0.456976 2.797376 16.621189 0.246684 0.658294 -8.019298 5.372277 -2.499811 0.000001 0.000000 -0.000000 1.196021 -18.070582 -11.448844 -0.064981 -4.998940 -72.419970 0.000001 -0.460352 -0.000011 -43.176662 -9.532096 -2.887893 -4.574164 -5.864625 5.319621 7.984209 17.375318 19.110666 -14.077088 2.887732 8.977142 0.000001 -0.000001 -0.000003 1.996709 -1.555189 5.204336 0.260851 1.730311 -17.144762 0.054425 0.797532 -7.807204 -0.000001 -0.000001 -0.000001 0.062952 2.384835 0.869749 0.239174 1.658437 -16.411532 0.270541 1.761401 -17.462803 0.000000 0.000000 0.000001 0.252913 3.857409 -12.304029 0.339014 1.965767 -19.568261 0.238936 1.657634 -16.403406 -0.000000 0.000001 -0.000001 1.169570 8.737682 -12.828069 0.209084 1.552677 -15.337716 0.179194 1.439292 -14.192716 -0.000000 0.000001 -0.000001 0.926603 14.391067 16.461852 8.493729 17.970197 56.750519 -0.000006 7.214218 -0.000001 -22.773806 2.604734 2.090351 -2.700654 3.781162 -0.957924 8.263706 -20.030187 -17.848534 -16.042728 -2.052902 -12.113471 -0.000000 -0.000000 -0.000003 1.052469 -0.345360 -5.305796 0.105810 -0.988139 12.223739 0.005679 -0.230165 2.826534 0.000001 -0.000000 0.000000 -0.005225 -2.374765 9.835044 0.157611 -1.202554 14.932715 0.179346 -1.281297 15.935984 -0.000002 0.000001 -0.000002 -0.820615 -1.475968 25.253091 0.309683 -1.671513 20.991077 0.224405 -1.429650 17.840340 -0.000000 -0.000001 -0.000003 0.043417 -4.012078 32.005785 0.196076 -1.338480 16.667644 0.170252 -1.248983 15.523744 -0.000001 0.000000 -0.000001 -12.112826 13.933539 8.717288 11.910629 1.420497 3.825761 2.140471 1.011485 -7.536957 -4.980976 -0.000007 0.000000 0.000000 -0.000001 -0.000000 -0.490842 -10.037096 -0.721407 9.676186 -8.776536 -3.092982 -6.183082 -4.104422 5.762660 -7.257176 0.000011 0.000003 0.000000 0.000001 0.000000 
1.347615 97.406395 -1.500584 -2.190723 -4.142778 -1.588782 3.987545 1.610640 3.108583 2.270181 0.433456 2.740723 2.245716 0.454575 2.744009 16.303494 0.147237 0.996456 -7.877979 4.614297 -2.119868 -0.000001 -0.000000 -0.000000 1.192159 -18.014894 -11.463456 -0.028835 -5.453033 -72.605047 0.000001 -0.670450 -0.000002 -42.774292 -9.722865 -2.859957 -4.273128 -5.139447 5.119327 8.233095 17.954450 18.986451 -14.056224 2.942241 8.982216 0.000001 0.000001 -0.000000 1.971291 -1.503734 4.592280 0.262565 1.735877 -17.201674 0.055220 0.803304 -7.864048 -0.000001 0.000000 -0.000000 0.062966 2.435633 0.578053 0.239182 1.658488 -16.412048 0.270693 1.761877 -17.467656 -0.000000 -0.000000 0.000002 0.262440 3.897551 -12.446972 0.342311 1.974998 -19.663997 0.241660 1.666852 -16.497279 0.000000 -0.000000 0.000003 1.248201 8.511322 -14.201220 0.219758 1.591075 -15.726896 0.189224 1.478379 -14.586742 -0.000001 -0.000000 -0.000002 0.935336 14.364672 16.418207 8.623179 18.294168 56.871273 -0.000009 7.173985 -0.000021 -22.579642 2.258800 3.085560 -2.119553 1.975295 -2.969320 8.770973 -21.256177 -17.669681 -15.891787 -2.829843 -12.410975 -0.000001 0.000000 0.000001 0.799080 0.781496 -2.319130 0.129338 -1.091067 13.520213 0.012261 -0.338111 4.154175 0.000001 0.000000 0.000001 -0.006519 -2.397472 10.254447 0.170926 -1.251410 15.554576 0.193521 -1.329909 16.557917 0.000000 0.000000 -0.000001 -0.650723 -1.618851 23.348633 0.314071 -1.682902 21.141071 0.228695 -1.442908 18.011453 -0.000000 0.000001 0.000003 0.355475 -4.314030 28.509935 0.195617 -1.336935 16.647954 0.172655 -1.257608 15.633608 -0.000000 0.000001 0.000001 -11.985292 13.934459 8.750537 11.894669 1.397715 3.831684 2.124220 1.009005 -7.544730 -4.985778 -0.000007 0.000002 0.000000 0.000001 0.000000 -0.323220 -10.059753 -0.679520 9.626216 -8.774782 -3.089730 -6.189104 -4.092334 5.764133 -7.266233 -0.000006 -0.000001 0.000001 -0.000001 0.000000 
1.337165 97.416664 -1.477485 -2.283010 -4.123984 -1.657644 3.939048 1.604297 3.077871 2.193793 0.420986 2.673298 2.169286 0.440833 2.676555 15.885731 0.023531 1.401391 -7.717283 3.682089 -1.620974 -0.000001 0.000000 -0.000000 1.186653 -17.965477 -11.490817 0.009118 -6.006355 -72.701128 -0.000002 -0.891643 -0.000004 -42.240533 -9.928617 -2.763607 -3.613681 -3.696059 4.912223 8.802300 19.243617 18.696731 -13.991254 3.105845 8.997633 0.000002 0.000003 -0.000005 2.012146 -1.363340 3.478070 0.264865 1.743264 -17.277156 0.056276 0.810951 -7.939479 -0.000001 -0.000000 0.000000 0.063863 2.594584 0.056910 0.239091 1.658165 -16.408811 0.270680 1.761846 -17.467343 -0.000001 -0.000001 0.000001 0.290309 4.006576 -13.018050 0.347508 1.989469 -19.814225 0.245925 1.681189 -16.643405 0.000001 0.000000 -0.000003 1.360826 8.256432 -16.228833 0.235340 1.645379 -16.278629 0.203932 1.533769 -15.146359 -0.000002 -0.000001 0.000001 0.950637 14.369427 16.341154 8.819267 18.780703 57.013928 -0.000000 7.125929 -0.000010 -22.381014 1.742006 4.354285 -1.781754 0.435192 -3.901625 9.528548 -23.035646 -17.392911 -15.673438 -3.305645 -12.603311 0.000002 0.000000 -0.000003 0.512639 1.412488 0.641988 0.166124 -1.234049 15.333411 0.025377 -0.486039 5.977379 0.000000 -0.000000 -0.000000 0.008019 -2.513552 10.825942 0.184052 -1.297656 16.144984 0.207447 -1.375857 17.147555 -0.000000 -0.000000 -0.000000 -0.515144 -1.822283 22.307391 0.318954 -1.695474 21.306691 0.233317 -1.457046 18.194155 0.000000 0.000002 0.000000 0.558129 -4.598628 26.315788 0.196119 -1.338614 16.669411 0.174724 -1.264988 15.727793 -0.000000 -0.000001 -0.000001 -11.867921 13.934137 8.809912 11.854608 1.374767 3.845215 2.112384 1.006405 -7.565563 -4.990008 -0.000002 0.000002 -0.000000 0.000001 0.000000 -0.138082 -10.073217 -0.594802 9.523188 -8.775239 -3.090195 -6.168086 -4.094877 5.754265 -7.270470 -0.000012 0.000000 0.000001 0.000003 0.000001 
1.311006 97.438522 -1.459794 -2.348143 -4.104838 -1.759200 3.875986 1.591475 3.047766 2.096283 0.399841 2.597887 2.071614 0.419110 2.600894 15.395497 -0.111840 1.826831 -7.661194 2.710736 -1.099596 0.000000 -0.000000 -0.000001 1.181982 -17.907100 -11.510985 0.079836 -6.757916 -72.702166 0.000001 -1.117976 -0.000003 -41.559584 -10.076082 -2.516952 -2.754635 -1.916134 4.766306 9.564606 20.898144 18.302784 -13.899790 3.335741 9.019060 0.000000 -0.000001 0.000000 2.045546 -1.197287 2.018239 0.267087 1.750376 -17.349968 0.057313 0.818340 -8.012273 0.000002 -0.000002 0.000000 0.069345 2.787875 -0.768113 0.239190 1.658494 -16.412161 0.270946 1.762693 -17.476031 0.000000 0.000001 0.000001 0.320049 4.108446 -13.887877 0.353968 2.007284 -19.999369 0.251344 1.699203 -16.827071 0.000001 0.000000 -0.000001 1.465385 8.040200 -18.305301 0.249332 1.692540 -16.759080 0.217246 1.582120 -15.636120 0.000001 -0.000001 0.000001 0.964158 14.401362 16.254706 9.132906 19.481885 57.125148 -0.000006 7.104432 0.000013 -22.080538 1.149945 5.466904 -1.626920 -0.358716 -4.396600 10.376060 -24.951600 -17.071832 -15.546392 -3.552224 -12.703600 -0.000002 -0.000001 -0.000001 0.262335 1.674698 3.400985 0.205203 -1.368567 17.053913 0.042075 -0.625292 7.699296 0.000000 -0.000000 0.000001 0.022355 -2.628822 11.580276 0.195053 -1.335040 16.623605 0.219081 -1.413003 17.625626 -0.000001 0.000001 -0.000001 -0.400022 -2.060029 21.852062 0.322352 -1.704149 21.421143 0.236605 -1.467005 18.323062 0.000001 -0.000000 -0.000000 0.619325 -4.887657 25.190574 0.197810 -1.344253 16.741721 0.177054 -1.273220 15.832879 0.000000 -0.000001 0.000002 -11.777451 13.933775 8.909837 11.786060 1.348764 3.865759 2.103446 1.003617 -7.590290 -4.994997 -0.000001 0.000001 -0.000000 -0.000000 -0.000000 0.053795 -10.060346 -0.445148 9.355260 -8.780701 -3.103551 -6.112396 -4.119604 5.729150 -7.272338 0.000010 -0.000000 -0.000000 -0.000000 -0.000000 
1.269496 97.470062 -1.445290 -2.389194 -4.103001 -1.887703 3.804807 1.578033 3.023047 1.986018 0.376451 2.521609 1.961045 0.395164 2.524280 14.847843 -0.234451 2.211741 -7.772701 1.878099 -0.652191 0.000000 0.000000 0.000000 1.178723 -17.816916 -11.515379 0.213535 -7.836153 -72.603757 0.000003 -1.346129 -0.000019 -40.749732 -10.029469 -2.055450 -2.062827 -0.535351 4.719598 10.205921 22.229940 17.966203 -13.831177 3.507904 9.034957 0.000000 -0.000001 -0.000003 1.939401 -1.099806 0.504562 0.268530 1.754990 -17.397178 0.057984 0.823127 -8.059478 0.000001 -0.000001 -0.000001 0.079341 2.900039 -2.009532 0.240857 1.664155 -16.469775 0.272675 1.768175 -17.532211 -0.000001 0.000000 0.000002 0.324232 4.106283 -14.765865 0.360279 2.024547 -20.178983 0.256911 1.717491 -17.013771 0.000000 -0.000001 -0.000001 1.515653 7.804026 -20.008003 0.257297 1.718753 -17.026606 0.225066 1.609794 -15.916940 -0.000001 -0.000000 0.000001 0.972486 14.452651 16.182378 9.548141 20.346695 57.184734 0.000010 7.132711 -0.000007 -21.626744 0.643589 6.111767 -1.581204 -0.562585 -4.705534 11.094591 -26.515918 -16.790717 -15.501572 -3.652598 -12.744098 -0.000000 -0.000001 -0.000003 0.111390 1.719780 5.245827 0.228431 -1.442100 18.001057 0.053050 -0.701673 8.646592 0.000000 0.000000 -0.000002 0.029230 -2.694407 12.232555 0.202129 -1.358507 16.924743 0.226564 -1.436345 17.926665 -0.000000 -0.000001 -0.000000 -0.317342 -2.252983 21.690379 0.324255 -1.708997 21.485183 0.238513 -1.472752 18.397323 -0.000000 -0.000000 -0.000000 0.580981 -5.120712 24.762694 0.200446 -1.352975 16.853628 0.179753 -1.282696 15.953908 -0.000000 0.000001 0.000003 -11.708679 13.936262 9.052372 11.695473 1.322989 3.882984 2.096774 1.000974 -7.607541 -5.003698 0.000001 0.000000 0.000000 -0.000001 0.000000 0.246661 -10.023169 -0.243607 9.134149 -8.790351 -3.124086 -6.027843 -4.146140 5.688048 -7.273100 0.000002 0.000002 -0.000000 0.000000 -0.000000 
1.222591 97.504379 -1.427993 -2.431479 -4.130144 -2.022044 3.735974 1.565771 3.003173 1.879988 0.354667 2.449748 1.854675 0.372487 2.452200 14.245031 -0.323132 2.501808 -8.012857 1.272868 -0.269034 0.000001 0.000000 0.000000 1.175841 -17.689529 -11.510074 0.447820 -9.338804 -72.396884 -0.000001 -1.577530 0.000004 -39.794478 -9.634200 -1.516028 -1.745088 0.078333 4.755495 10.549786 22.921794 17.782520 -13.818444 3.544617 9.037726 0.000001 -0.000002 -0.000002 1.626643 -1.101414 -0.923455 0.268926 1.756254 -17.410128 0.058174 0.824444 -8.072426 0.000000 -0.000000 0.000002 0.085279 2.879823 -3.801304 0.244834 1.677538 -16.606142 0.276524 1.780299 -17.656444 0.000000 -0.000001 0.000003 0.290822 3.975799 -15.476872 0.365428 2.038482 -20.324047 0.261814 1.733423 -17.176584 -0.000001 0.000001 -0.000002 1.474415 7.429214 -21.338037 0.260306 1.728552 -17.126761 0.228555 1.621965 -16.040580 -0.000000 0.000000 0.000001 0.979388 14.518624 16.130651 9.969371 21.228450 57.232836 -0.000006 7.193126 -0.000016 -21.137492 0.325340 6.351009 -1.583907 -0.510739 -4.813760 11.581676 -27.547165 -16.596260 -15.502202 -3.655207 -12.745161 0.000000 0.000001 0.000000 0.059916 1.676801 5.967351 0.232588 -1.454820 18.165486 0.055082 -0.714928 8.811350 -0.000002 0.000000 -0.000000 0.027077 -2.704051 12.631758 0.205394 -1.369195 17.061951 0.230023 -1.446982 18.064109 -0.000001 0.000000 0.000000 -0.281718 -2.346141 21.727262 0.325406 -1.711913 21.523687 0.239612 -1.476046 18.440112 -0.000002 0.000002 0.000000 0.544038 -5.216446 24.791799 0.202821 -1.360786 16.953899 0.181989 -1.290495 16.053436 -0.000000 -0.000000 0.000000 -11.629761 13.953177 9.212962 11.601323 1.308340 3.893518 2.082795 0.999771 -7.618149 -5.018161 0.000011 0.000003 0.000000 0.000000 -0.000000 0.446492 -9.989420 -0.042808 8.898475 -8.800785 -3.127117 -5.937382 -4.135738 5.633698 -7.272991 0.000002 0.000000 -0.000000 0.000000 0.000000 
